HIERARCHY
ROOT joint_Root
{
	OFFSET 0.0 0.0 0.0
	CHANNELS 6 Xposition Yposition Zposition Zrotation Xrotation Yrotation 
	JOINT Hips
	{
		OFFSET -0.726466 93.3139 -2.00062
		CHANNELS 6 Xposition Yposition Zposition Zrotation Xrotation Yrotation 
		JOINT Spine
		{
			OFFSET 15.7357 0.0 0.0
			CHANNELS 6 Xposition Yposition Zposition Zrotation Xrotation Yrotation 
			JOINT Chest
			{
				OFFSET 8.98455 -0.406207 0.0
				CHANNELS 6 Xposition Yposition Zposition Zrotation Xrotation Yrotation 
				JOINT Neck
				{
					OFFSET 16.3773 0.0 0.0
					CHANNELS 6 Xposition Yposition Zposition Zrotation Xrotation Yrotation 
					JOINT Head
					{
						OFFSET 6.45672 0.0 0.0
						CHANNELS 6 Xposition Yposition Zposition Zrotation Xrotation Yrotation 
						End Site
						{
							OFFSET 0.0 0.0 0.0
						}
					}
				}
				JOINT Shoulder_L
				{
					OFFSET 12.9942 -0.242716 4.98039
					CHANNELS 6 Xposition Yposition Zposition Zrotation Xrotation Yrotation 
					JOINT UpperArm_L
					{
						OFFSET 5.34809 0.0 0.0
						CHANNELS 6 Xposition Yposition Zposition Zrotation Xrotation Yrotation 
						JOINT LowerArm_L
						{
							OFFSET 24.3286 1.87007e-05 0.0
							CHANNELS 6 Xposition Yposition Zposition Zrotation Xrotation Yrotation 
							JOINT Hand_L
							{
								OFFSET 22.2916 0.0 0.0
								CHANNELS 6 Xposition Yposition Zposition Zrotation Xrotation Yrotation 
								End Site
								{
									OFFSET 0.0 0.0 0.0
								}
							}
						}
					}
				}
				JOINT Shoulder_R
				{
					OFFSET 12.9945 -0.242716 -4.98039
					CHANNELS 6 Xposition Yposition Zposition Zrotation Xrotation Yrotation 
					JOINT UpperArm_R
					{
						OFFSET -5.34813 0.0 0.0
						CHANNELS 6 Xposition Yposition Zposition Zrotation Xrotation Yrotation 
						JOINT LowerArm_R
						{
							OFFSET -24.3289 0.000322201 0.0
							CHANNELS 6 Xposition Yposition Zposition Zrotation Xrotation Yrotation 
							JOINT Hand_R
							{
								OFFSET -22.2915 -0.000108084 0.0
								CHANNELS 6 Xposition Yposition Zposition Zrotation Xrotation Yrotation 
								End Site
								{
									OFFSET 0.0 0.0 0.0
								}
							}
						}
					}
				}
			}
		}
		JOINT UpperLeg_L
		{
			OFFSET -2.19248 -6.46944 0.0
			CHANNELS 6 Xposition Yposition Zposition Zrotation Xrotation Yrotation 
			JOINT LowerLeg_L
			{
				OFFSET 39.0811 0.0 -1.23785e-05
				CHANNELS 6 Xposition Yposition Zposition Zrotation Xrotation Yrotation 
				JOINT Foot_L
				{
					OFFSET 40.9854 0.0 -1.26872e-05
					CHANNELS 6 Xposition Yposition Zposition Zrotation Xrotation Yrotation 
					JOINT Toes_L
					{
						OFFSET 11.7543 0.0 0.0
						CHANNELS 6 Xposition Yposition Zposition Zrotation Xrotation Yrotation 
						End Site
						{
							OFFSET 0.0 0.0 0.0
						}
					}
				}
			}
		}
		JOINT UpperLeg_R
		{
			OFFSET -2.19251 6.46944 0.0
			CHANNELS 6 Xposition Yposition Zposition Zrotation Xrotation Yrotation 
			JOINT LowerLeg_R
			{
				OFFSET -39.0811 -0.00228153 -0.0401928
				CHANNELS 6 Xposition Yposition Zposition Zrotation Xrotation Yrotation 
				JOINT Foot_R
				{
					OFFSET -40.9854 0.0 0.0
					CHANNELS 6 Xposition Yposition Zposition Zrotation Xrotation Yrotation 
					JOINT Toes_R
					{
						OFFSET -11.7543 0.0 0.0
						CHANNELS 6 Xposition Yposition Zposition Zrotation Xrotation Yrotation 
						End Site
						{
							OFFSET 0.0 0.0 0.0
						}
					}
				}
			}
		}
	}
}
MOTION
Frames:	4
Frame Time:	0.0333333
0.000000 0.000000 0.000000 0.000000 0.000000 -0.000000 -1.673150 92.197600 -3.900660 87.211800 -4.510560 4.399710 15.735700 0.000005 -0.000001 95.225500 86.139300 -96.060500 8.984550 -0.406207 -0.000000 -0.070679 0.760134 -1.668490 16.377300 -0.000001 -0.000001 1.338210 -2.526060 1.773160 6.456720 -0.000001 -0.000000 -1.619150 -0.584348 -12.031400 12.994200 -0.242716 4.980390 -89.219200 -2.466510 -72.427900 5.348090 -0.000007 -0.000001 28.431700 73.750600 -78.157500 24.328600 0.000019 0.000005 14.574400 2.585220 -80.158300 22.291600 -0.000001 0.000005 41.791400 5.537770 -34.099500 12.994500 -0.242716 -4.980390 91.667200 -3.659210 -65.484100 -5.348130 -0.000001 -0.000004 -64.288500 -51.480000 -109.096000 -24.328900 0.000322 -0.000009 -1.552010 -0.943576 -58.687400 -22.291500 -0.000108 -0.000004 19.215200 5.475150 -5.564510 -2.192480 -6.469440 -0.000000 -167.925000 -16.768000 -1.929590 39.081100 -0.000007 -0.000012 -0.170355 0.435331 21.371700 40.985400 -0.000006 -0.000013 -6.211400 2.409660 -62.698600 11.754300 -0.000000 0.000003 -0.000036 -0.000421 -16.594000 -2.192510 6.469440 -0.000001 176.684000 16.199500 177.674000 -39.081100 -0.002282 -0.040193 0.032484 -0.077863 20.533400 -40.985400 0.000008 0.000006 0.247242 2.210010 -62.701800 -11.754300 -0.000006 -0.000006 -0.008479 -0.091899 -20.315800
0.000000 0.000000 0.000000 0.000000 0.000000 -0.000000 -1.691320 92.199600 -3.871360 87.205900 -4.443050 4.385550 15.735700 0.000005 -0.000001 95.210700 86.137000 -96.036400 8.984550 -0.406207 -0.000000 -0.065941 0.757916 -1.649920 16.377300 -0.000001 -0.000001 1.354020 -2.535810 1.799630 6.456720 -0.000001 -0.000000 -1.652810 -0.588558 -11.993300 12.994200 -0.242716 4.980390 -89.225800 -2.449670 -72.455500 5.348090 -0.000007 -0.000001 28.284400 73.766600 -77.998000 24.328600 0.000019 0.000005 14.578700 2.589800 -80.144200 22.291600 -0.000001 0.000005 41.721700 5.535360 -34.208100 12.994500 -0.242716 -4.980390 91.672300 -3.667290 -65.465700 -5.348130 -0.000001 -0.000004 -64.361400 -51.442800 -109.152000 -24.328900 0.000322 -0.000009 -1.639130 -0.996861 -58.681400 -22.291500 -0.000108 -0.000004 19.190300 5.476120 -5.600670 -2.192480 -6.469440 -0.000000 -167.914000 -16.771600 -1.929260 39.081100 -0.000007 -0.000012 -0.168633 0.431448 21.348500 40.985400 -0.000006 -0.000013 -6.208110 2.473650 -62.690900 11.754300 -0.000000 0.000003 -0.000034 -0.000402 -16.593200 -2.192510 6.469440 -0.000001 176.714000 16.204800 177.684000 -39.081100 -0.002282 -0.040193 0.033923 -0.081681 20.538800 -40.985400 0.000008 0.000006 0.308505 2.097410 -62.726800 -11.754300 -0.000006 -0.000006 -0.008654 -0.093291 -20.372700
0.000000 0.000000 0.000000 0.000000 0.000000 -0.000000 -1.702830 92.199000 -3.842520 87.210100 -4.389360 4.323600 15.735700 0.000005 -0.000001 95.141600 86.151300 -95.962500 8.984550 -0.406207 -0.000000 -0.093696 0.745932 -1.640270 16.377300 -0.000001 -0.000001 1.335430 -2.568760 1.847460 6.456720 -0.000001 -0.000000 -1.593250 -0.647040 -11.912700 12.994200 -0.242716 4.980390 -89.227600 -2.445170 -72.463000 5.348090 -0.000007 -0.000001 28.209500 73.784100 -77.914200 24.328600 0.000019 0.000005 14.691700 2.600500 -80.182200 22.291600 -0.000001 0.000005 41.634600 5.537310 -34.120400 12.994500 -0.242716 -4.980390 91.677100 -3.677520 -65.463400 -5.348130 -0.000001 -0.000004 -64.355600 -51.481500 -109.116000 -24.328900 0.000322 -0.000009 -1.639430 -0.995662 -58.716900 -22.291500 -0.000108 -0.000004 19.139000 5.475150 -5.565060 -2.192480 -6.469440 -0.000000 -167.941000 -16.720400 -1.985240 39.081100 -0.000007 -0.000012 -0.168266 0.430697 21.339900 40.985400 -0.000006 -0.000013 -6.215420 2.459080 -62.701700 11.754300 -0.000000 0.000003 -0.000040 -0.000463 -16.595600 -2.192510 6.469440 -0.000001 176.724000 16.255800 177.640000 -39.081100 -0.002282 -0.040193 0.034318 -0.082695 20.548000 -40.985400 0.000008 0.000006 0.409964 2.091250 -62.770200 -11.754300 -0.000006 -0.000006 -0.008451 -0.091677 -20.306700
0.000000 0.000000 0.000000 0.000000 0.000000 -0.000000 -1.705920 92.194600 -3.799020 87.207800 -4.343360 4.312250 15.735700 0.000005 -0.000001 95.208400 86.139100 -96.031600 8.984550 -0.406207 -0.000000 -0.070099 0.757081 -1.645110 16.377300 -0.000001 -0.000001 1.413230 -2.603210 1.947900 6.456720 -0.000001 -0.000000 -1.649870 -0.710062 -11.673800 12.994200 -0.242716 4.980390 -89.223900 -2.453320 -72.438200 5.348090 -0.000007 -0.000001 28.387100 73.736700 -78.097400 24.328600 0.000019 0.000005 14.517600 2.569220 -80.178800 22.291600 -0.000001 0.000005 41.618100 5.535610 -34.196900 12.994500 -0.242716 -4.980390 91.676500 -3.668880 -65.420400 -5.348130 -0.000001 -0.000004 -64.310000 -51.556800 -109.018000 -24.328900 0.000322 -0.000009 -1.546050 -0.936174 -58.789700 -22.291500 -0.000108 -0.000004 19.180800 5.474560 -5.541590 -2.192480 -6.469440 -0.000000 -167.938000 -16.725800 -1.996980 39.081100 -0.000007 -0.000012 -0.169211 0.432536 21.366000 40.985400 -0.000006 -0.000013 -6.222880 2.438380 -62.727600 11.754300 -0.000000 0.000003 -0.000036 -0.000428 -16.594300 -2.192510 6.469440 -0.000001 176.719000 16.323300 177.659000 -39.081100 -0.002282 -0.040193 0.034949 -0.084307 20.563900 -40.985400 0.000008 0.000006 0.351565 2.100900 -62.798200 -11.754300 -0.000006 -0.000006 -0.008871 -0.094995 -20.442300
